<svg width="324" height="125" viewBox="0 0 324 125" fill="none" xmlns="http://www.w3.org/2000/svg">
<path d="M12 12V0H48V12H12ZM36 48V36H12V24H0V12H12V24H36V36H48V48H36ZM0 60V48H36V60H0Z" fill="white"/>
<path d="M72 60V0H108V12H120V24H108V36H84V60H72ZM84 24H107.52V12H84V24Z" fill="white"/>
<path d="M144 60V12H156V0H180V12H192V60H180V36H156V60H144ZM156 24H180V12.48H156V24Z" fill="white"/>
<path d="M252 24V12H228V0H252V12H264V24H252ZM228 60V48H216V12H228V48H252V60H228ZM252 48V36H264V48H252Z" fill="white"/>
<path d="M288 60V0H324V12H300V24H324V36H300V48H324V60H288Z" fill="white"/>
<path d="M0 125V76H9.81818V85.8H19.6364V95.6H29.4545V105.4H39.2727V76H49.0909V125H39.2727V115.2H29.4545V105.4H19.6364V95.6H9.81818V125H0Z" fill="white"/>
<path d="M78.5455 125V115.2H68.7273V85.8H78.5455V76H98.1818V85.8H108V115.2H98.1818V125H78.5455ZM78.5455 114.808H98.1818V86.192H78.5455V114.808Z" fill="white"/>
<path d="M137.455 125V115.2H127.636V85.8H137.455V76H157.091V85.8H166.909V115.2H157.091V125H137.455ZM137.455 114.808H157.091V86.192H137.455V114.808Z" fill="white"/>
<path d="M186.545 125V76H216V85.8H225.818V115.2H216V125H186.545ZM196.364 115.2H215.607V85.8H196.364V115.2Z" fill="white"/>
<path d="M245.455 125V76H255.273V115.2H274.909V125H245.455Z" fill="white"/>
<path d="M294.545 125V76H324V85.8H304.364V95.6H324V105.4H304.364V115.2H324V125H294.545Z" fill="white"/>
</svg>
